<svg xmlns="http://www.w3.org/2000/svg" xml:space="preserve" width="24" height="24" viewBox="0 0 24 24"><g fill-rule="evenodd"><path fill="#fff" d="M1.5 1.923C.134 1.923-.86 3.4-.355 4.665h.001l6.89 17.094.001.01c.582 1.43 2.74 1.609 3.553.297l1.351-2.188 3.635 3.969c.749.824 2.08.86 2.875.086l2.05-1.998c.772-.75.8-2.022.063-2.805h-.002l-3.584-3.79 1.862-.807h-.004c1.44-.621 1.542-2.84.166-3.592L2.459 2.17h-.004a1.94 1.94 0 0 0-.955-.248"/><path d="M1.5 3.423a.5.5 0 0 0-.463.686l6.889 17.093a.5.5 0 0 0 .888.074l2.395-3.875 4.977 5.436a.5.5 0 0 0 .718.022l2.053-2a.5.5 0 0 0 .016-.701l-5.055-5.348 3.824-1.658a.5.5 0 0 0 .041-.899L1.74 3.483a.5.5 0 0 0-.24-.06"/><path fill="#ccc" stroke="#b3b3b3" stroke-linecap="round" d="M4.016 6.574 14 12"/></g><g transform="translate(-3.594 -2.762)scale(.94862)"><rect width="14.176" height="14.176" x="14.912" y="2.912" fill="#176fc1" rx="1.615" style="stroke-width:.221505"/><path fill="#fff" d="M22 3.263a6.737 6.737 0 1 0 0 13.475 6.737 6.737 0 0 0 0-13.475m.693 12.387c-1.028.126-2.09-.126-3.027-.47-.045-.159-.122-.31-.121-.482 0-.306.2-.514.507-.527.302-.014.592.056.884.11 2.361.442 4.244.172 4.941-.157-.457.623-2.02 1.382-3.184 1.526m4.405-3.151s-1.623 1.082-6.557-.285a43 43 0 0 1-2.473-.751c-.333-.114-1.142-.464-1.537.08-.452-1.364-.12-2.46-.12-2.46s.068-.092.086-.113c.415-.487.962-.612 1.569-.577.876.05 1.65.401 2.397.824 1.17.661 2.297 1.41 3.537 1.928 2.784 1.16 3.32.517 3.45.426-.156.59-.352.928-.352.928m.417-3.796c.085.404.149.81.15 1.225-.191.328-.405.467-.832.31-.729-.268-1.546-.878-3.055-2.105-.775-.63-1.626-1.15-2.513-1.61-.82-.424-1.696-.57-2.61-.491-.227.02-.483.046-.824.165a5.5 5.5 0 0 1 2.004-1.407c.04-.017 2.541-.367 4.424 1.72 1.648 1.827 2.597 2.234 2.755 2.267.133.029.342.041.501-.074" style="stroke-width:.374304"/></g></svg>