<svg xmlns="http://www.w3.org/2000/svg" xml:space="preserve" width="48" height="48"><g transform="translate(-62.095 -16.47)scale(1.15696)"><rect width="28.884" height="28.884" x="54.103" y="15.1" fill="#176fc1" rx="3.291" style="stroke-width:.45132"/><path fill="#fff" d="M68.545 17.454c-6.677 0-12.089 5.412-12.089 12.089 0 6.676 5.412 12.089 12.089 12.089s12.089-5.413 12.089-12.09-5.412-12.088-12.089-12.088m1.244 22.226c-1.845.227-3.75-.226-5.431-.842-.082-.286-.22-.557-.219-.866 0-.549.359-.922.911-.946.54-.024 1.062.1 1.586.198 4.237.793 7.615.308 8.866-.281-.821 1.116-3.624 2.48-5.713 2.737m7.904-5.654s-2.913 1.942-11.765-.51a78 78 0 0 1-4.438-1.348c-.598-.205-2.05-.833-2.758.142-.811-2.446-.214-4.411-.214-4.411s.12-.166.153-.205c.745-.873 1.725-1.098 2.815-1.035 1.573.09 2.962.72 4.302 1.479 2.097 1.186 4.12 2.53 6.346 3.459 4.995 2.082 5.958.929 6.189.765-.28 1.057-.63 1.664-.63 1.664m.748-6.81c.152.725.266 1.454.269 2.198-.343.589-.728.838-1.493.556-1.308-.481-2.775-1.576-5.482-3.778-1.39-1.13-2.918-2.064-4.509-2.888-1.471-.762-3.042-1.023-4.683-.882a5.6 5.6 0 0 0-1.479.297c1.003-1.12 2.216-1.943 3.597-2.525.073-.03 4.559-.658 7.938 3.088 2.956 3.276 4.66 4.006 4.942 4.066.24.052.614.074.9-.132" style="stroke-width:.671613"/></g><path fill="#fff" fill-rule="evenodd" stroke="#000" stroke-linecap="round" stroke-linejoin="round" stroke-width="1.2" d="M45.324 32.905 23.013 20.696l9.58 23.794 3.814-6.177 7.542 8.246 2.856-2.784-7.71-8.167z"/></svg>