<svg xmlns="http://www.w3.org/2000/svg" width="64" height="64" fill="none" viewBox="0 0 64 64"><rect width="64" height="64" fill="#176fc1" rx="7.291"/><path fill="#fff" d="M25 7C15.059 7 7 15.059 7 25s8.059 18 18 18 18-8.059 18-18S34.941 7 25 7m1.852 33.094c-2.747.338-5.585-.336-8.087-1.253-.122-.427-.326-.83-.325-1.29 0-.817.534-1.372 1.357-1.409.804-.036 1.58.15 2.36.296 6.31 1.18 11.339.458 13.2-.42-1.22 1.663-5.395 3.693-8.505 4.076m11.768-8.418s-4.337 2.891-17.517-.76c-2.22-.615-4.429-1.261-6.608-2.007-.89-.305-3.05-1.24-4.106.212-1.208-3.642-.32-6.569-.32-6.569s.18-.247.23-.304c1.108-1.3 2.568-1.635 4.19-1.541 2.342.134 4.411 1.072 6.405 2.201 3.123 1.767 6.136 3.769 9.45 5.15 7.438 3.101 8.87 1.384 9.215 1.14-.416 1.573-.939 2.478-.939 2.478m1.114-10.14c.226 1.079.397 2.165.401 3.272-.511.877-1.083 1.249-2.222.83-1.948-.718-4.132-2.347-8.164-5.626-2.068-1.682-4.344-3.074-6.713-4.3-2.19-1.135-4.53-1.524-6.972-1.314-.607.052-1.29.124-2.203.442 1.494-1.667 3.3-2.892 5.356-3.76.108-.045 6.787-.979 11.819 4.598 4.401 4.879 6.939 5.965 7.359 6.055.357.077.914.11 1.34-.198M52.932 57.15l-4.677-4.185-1.428 1.278c-1.462 1.308-2.193 1.962-2.979 1.808-.785-.154-1.143-1.022-1.858-2.758l-2.384-5.79c-1.426-3.463-2.139-5.195-1.141-6.087.997-.893 2.932-.255 6.803 1.021l6.47 2.133c1.941.64 2.911.96 3.084 1.663.172.703-.559 1.357-2.02 2.665l-1.429 1.278 4.677 4.184c.484.434.726.65.838.892.15.322.15.684 0 1.006-.112.242-.354.459-.838.892s-.726.65-.997.75a1.63 1.63 0 0 1-1.124 0c-.27-.1-.513-.317-.997-.75"/></svg>